<svg xmlns="http://www.w3.org/2000/svg" data-name="Layer 1" viewBox="0 0 100 125" x="0px" y="0px"><defs><style>
      .cls-1 {
        stroke-width: 0px;
      }
    </style></defs><path class="cls-1" d="m98.31,18.13c-.06-.18-.14-.39-.3-.51-.02-.01-.04-.03-.07-.04-.05-.03-.11-.04-.17-.06-.04-.04-.08-.09-.12-.13-.02-.01-.08-.06-.15-.11-.34-.25-.68-.47-1.04-.7-.26-.16-.5-.35-.77-.51-.26-.15-.52-.3-.78-.44-.19-.12-.38-.24-.56-.36-.39-.33-.75-.72-1.18-1.01-.45-.31-.92-.58-1.39-.85-.1-.07-.21-.14-.31-.21-.26-.22-.52-.44-.78-.65-.19-.15-.4-.28-.6-.41-.45-.29-.97-.49-1.46-.72-.21-.12-.4-.25-.6-.39-.59-.49-1.17-.98-1.79-1.43-.51-.37-1.05-.68-1.6-.98-.15-.09-.46-.25-.78-.42l-.05-.03c-.07-.05-.15-.09-.23-.13-.06-.03-.12-.06-.18-.09-.09-.04-.19-.05-.29-.09-.05-.07-.11-.13-.18-.17-.11-.06-.24-.09-.38-.09-.14,0-.28,0-.41.03-.2-.02-.41-.02-.6.05-.16.06-.34.13-.44.28-.02.03-.03.07-.04.11-.03.02-.06.04-.09.06-.17.14-.32.3-.48.46-.36.35-.69.71-.97,1.13-.25.38-.43.8-.65,1.19-.14.21-.29.41-.44.61-.25.29-.52.58-.75.89-.18.25-.35.49-.54.73-.33.39-.66.77-.95,1.19-.33.47-.6.98-.88,1.48-.07.09-.14.19-.21.28-.53.57-1.07,1.11-1.54,1.73-.23.31-.45.62-.66.94-.15.23-.32.45-.49.66-.37.43-.74.86-1.05,1.34-.26.41-.49.83-.74,1.25-.06.1-.12.2-.18.29-.21.25-.42.48-.64.71-.26.26-.51.53-.74.82-.25.33-.5.65-.73.99-.16.24-.33.48-.49.71-.24.27-.47.53-.7.81-.2.24-.37.48-.54.74-.18.27-.33.55-.49.84-.13.24-.27.47-.41.71-.13.15-.25.31-.39.45-.17.18-.36.36-.52.54-.27.31-.54.61-.79.94-.47.61-.86,1.26-1.26,1.92-.13.2-.27.41-.4.61-.22.24-.44.48-.67.71-.24.23-.46.46-.67.72-.18.22-.36.42-.51.66-.13.21-.26.43-.39.64-.15.2-.3.4-.45.6-.17.19-.34.39-.51.58-.17.19-.3.41-.44.62-.22.33-.41.67-.6,1.02-.12.18-.25.36-.37.54-.43.49-.85.99-1.25,1.52-.17.21-.35.42-.51.64-.11.15-.22.31-.3.48-.11.05-.21.12-.28.22-.18.26-.1.64,0,.91.22.67.74,1.2,1.35,1.53.03.02.05.04.08.05-.18.16-.34.34-.46.54-.11.21-.22.42-.31.64-.23.53-.39,1.08-.57,1.63-.07.19-.15.37-.23.55-.09.16-.19.31-.29.47-.33.48-.75,1.13-1.06,1.83-.02.05-.04.11-.06.16-.27.34-.48.73-.62,1.14-.23-.47-.55-.91-.98-1.26-1.85-1.28-4.42-.2-5.36,1.7-.22.44-.32.86-.35,1.25-.07,0-.14-.02-.21-.03-.31-.04-.62-.11-.94-.16.02-1.95-.54-3.75-1.93-4.21-2.4-.98-5.56.36-5.78,3.13-.02.09-.02.19-.04.29-.14-.93-.6-1.8-1.04-2.63-1.74-3.54-7.24-1.9-7.65,1.63,0,.08,0,.17,0,.26-.58-1.74-1.86-3.6-3.81-3.78-2.68-.48-4.38,2.36-3.72,4.71-.02,0-.03,0-.05,0-.09,0-.18,0-.28,0,.03-.2.07-.39.11-.56-.02-1.76-.81-4.26-2.49-5.06-1.26-.47-2.3.62-3.19,1.35-1.11.87-1.74,2.6-1.19,3.92-.13-.03-.26-.04-.39-.06-.04-.57-.15-1.14-.41-1.67-1.44-2.97-4.01-4.83-6.7-1.95-.85.75-1.34,2.14-1.25,3.38-.07,0-.15,0-.22-.01-.01,0-.02-.02-.04-.03,0,0,0,0,0,0-.22-.13-.47-.2-.74-.2-.55,0-1.04.33-1.28.81-.33.43-.38,1.07-.12,1.54.06.11.14.22.23.31,0,0,0,0,0,0,.04.04.08.07.12.1.05.04.1.06.15.1.07.13.15.26.22.39-.25-.03-.49-.07-.73-.13-1.35-.14-2.12,1.68-1.08,2.58.02.01.04.02.06.03,0,.06,0,.11,0,.17.03.2.12.4.2.58.14.31.29.62.45.92.19.37.36.75.56,1.12.14.25.29.5.43.75.09.17.18.34.26.52.16.45.28.92.46,1.36.13.3.27.59.43.88.09.17.2.34.3.51.07.13.13.27.2.41.21.62.41,1.26.77,1.81.29.46.61.91.9,1.36.06.14.13.27.19.41.26.76.54,1.51.86,2.25.31.7.74,1.37,1.16,2.01.07.12.14.25.21.37.1.25.2.51.28.77.1.33.2.67.33.99.13.32.27.62.43.92.13.25.28.48.42.72.08.16.16.32.23.48.22.53.44,1.06.7,1.57.29.56.65,1.07.98,1.61.05.12.1.24.16.36.18.58.36,1.18.62,1.73.3.63.65,1.23.95,1.86.24.58.49,1.16.78,1.72.26.5.58.97.88,1.44.07.14.14.27.2.41.36,1.03.65,2.26,1.47,3.04.16.34.43.62.79.74.22.08.46.1.69.12.44.02.88.02,1.32.02.17,0,.34,0,.51,0,.28.01.56.02.83,0,.28-.02.55-.03.83-.05.25.01.49.03.74.06.53.09,1.05.16,1.59.17.43,0,.87-.03,1.3-.05.32.03.63.07.95.11.29.04.57.04.85.04.52,0,1.05-.09,1.57-.16.18,0,.35-.02.53-.03.89.1,1.78.23,2.68.26.87.03,1.73-.06,2.59-.14.21.02.42.03.63.05.59.1,1.18.2,1.77.23.55.03,1.1-.02,1.65-.04.61.04,1.22.09,1.84.1.53,0,1.05-.05,1.57-.11.18,0,.35-.02.53-.03.77.08,1.54.21,2.32.26.33.02.68,0,1.01,0,.3-.01.59-.01.89,0,.58.05,1.15.09,1.73.08.49,0,.97-.05,1.45-.11.16-.01.32-.02.48-.03.13,0,.26.01.4.02.31.05.62.1.94.15.25.04.49.05.74.07.56.04,1.12,0,1.68-.02.68.03,1.34,0,2.02,0,.24.01.48.04.72.07.53.11,1.08.24,1.62.21.44-.02.88-.06,1.32-.12.2-.02.41-.04.61-.06.23-.02.46-.03.7-.03.43.03.84.1,1.26.16.54.1,1.07.19,1.63.19.43,0,.86-.08,1.28-.14.23-.02.46-.03.7-.03.44.03.88.08,1.33.1.25.01.5,0,.75,0,.17,0,.33,0,.5,0,.52.02,1.07.08,1.61.08.69,0,1.36-.1,1.94-.51.16-.11.3-.23.42-.38.12-.14.27-.32.27-.52,0-.21-.17-.4-.3-.56-.02-.02-.04-.04-.06-.06,0-.5-.18-1.05-.5-1.44-.23-.31-.53-.57-.82-.82.23.01.46.03.69.03.47.01.94-.06,1.41-.08.2,0,.4.03.6.05.27.04.54.08.81.08.12,0,.24,0,.36-.03.37-.06.79-.15,1.09-.38.3-.23.69-.56.66-.98-.01-.17-.08-.32-.17-.46.06-.37.06-.77-.05-1.13-.28-.86-.9-1.54-1.43-2.25-.09-.13-.16-.26-.24-.39-.17-.35-.3-.71-.47-1.06-.15-.31-.3-.63-.47-.93-.35-.66-.8-1.27-1.17-1.92-.28-.56-.56-1.12-.91-1.63-.31-.45-.64-.89-.97-1.32-.08-.15-.17-.29-.25-.44-.15-.36-.3-.72-.46-1.07-.13-.28-.28-.56-.43-.83-.29-.54-.64-1.05-.97-1.58-.12-.27-.24-.55-.39-.81-.13-.23-.26-.46-.39-.69-.09-.13-.18-.25-.28-.38-.11-.14-.22-.29-.32-.44-.15-.18-.29-.37-.44-.56-.12-.21-.25-.42-.37-.64-.2-.46-.39-.91-.61-1.36-.18-.37-.37-.71-.59-1.06-.46-.72-.96-1.41-1.44-2.11-.29-.66-.58-1.33-.88-1.99-.14-.3-.36-.55-.56-.82,1.09-.88,2.04-1.92,3.04-2.89,1.03-.64,3.38-2.49,4.12-4.16.13.08.26.16.41.22.18.07.37.1.57.1.14,0,.29-.02.44-.05.3-.13.56-.28.74-.56.05-.07.07-.16.11-.24.15-.13.29-.28.41-.44.55-.76,1.09-1.54,1.59-2.34.16-.19.32-.38.47-.58.21-.22.43-.44.64-.66.16-.16.29-.37.42-.56.28-.4.55-.8.82-1.21.13-.15.27-.29.41-.44.1-.11.2-.22.3-.33.2-.28.4-.57.6-.85.17-.24.3-.52.44-.78.15-.27.31-.53.47-.8.33-.37.66-.73.98-1.1.26-.3.54-.6.78-.93.47-.65.89-1.32,1.29-2.02.12-.17.25-.35.37-.52.23-.24.47-.47.7-.72.19-.21.43-.41.59-.65.19-.28.38-.57.57-.85.18-.26.34-.55.54-.79.38-.46.75-.92,1.1-1.39.17-.23.3-.49.45-.73.17-.28.33-.56.49-.84.15-.18.3-.35.44-.53.23-.24.47-.48.69-.73.14-.17.31-.33.44-.51.28-.38.54-.77.8-1.17.22-.3.44-.59.68-.88.25-.3.51-.6.73-.93.21-.31.44-.62.61-.96.14-.27.29-.53.45-.79.07-.09.14-.19.21-.28.26-.27.52-.53.78-.8.3-.32.56-.67.8-1.03.15-.23.29-.48.46-.69.11-.14.22-.29.33-.43.21-.29.41-.58.6-.88.17-.25.34-.5.52-.74.2-.23.41-.44.63-.65.19-.18.38-.37.55-.57.45-.56.83-1.18,1.04-1.87.12-.4.11-.85-.01-1.25Zm-14.19-6.32c.34.24.7.45,1.06.65.34.2.85.48,1.37.75.11.07.21.13.32.2.47.38.89.8,1.35,1.19.48.41,1.07.7,1.62.99.11.07.21.14.32.21.43.35.87.68,1.33.99.26.17.55.3.83.43.18.08.35.17.52.27.1.07.2.13.3.2.28.22.55.44.82.66.22.17.46.31.68.47.1.07.21.15.31.22-.12.15-.22.3-.32.46-.04.08-.09.16-.13.23-.18-.19-.39-.35-.61-.48-.33-.21-.67-.42-1-.62-.3-.19-.59-.41-.91-.57-.3-.16-.59-.32-.88-.49-.12-.09-.25-.18-.37-.28-.39-.35-.78-.7-1.22-.98-.48-.31-1-.57-1.49-.87-.1-.08-.2-.16-.3-.23-.41-.35-.83-.68-1.31-.94-.4-.22-.82-.4-1.24-.58-.16-.09-.32-.17-.48-.27-.14-.1-.28-.21-.42-.32-.26-.22-.52-.44-.79-.64-.33-.25-.66-.51-1.01-.74-.12-.08-.24-.15-.36-.22.15-.18.3-.36.43-.57.06-.09.1-.18.15-.27.18.15.36.31.55.45.28.23.57.46.87.67Zm-11.86,37.99c-.25.32-.5.65-.76.97-.02.02-.03.04-.04.06-.61-.38-1.22-.77-1.85-1.12-.18-.12-.36-.23-.54-.36-.42-.36-.83-.73-1.29-1.04-.38-.26-.79-.47-1.2-.69-.13-.08-.26-.16-.39-.25-.5-.41-1-.85-1.59-1.14-.45-.23-.92-.42-1.38-.64-.13-.08-.26-.16-.39-.25-.38-.3-.75-.62-1.13-.91-.32-.25-.64-.5-.98-.72-.3-.19-.6-.36-.91-.53-.38-.21-.77-.39-1.15-.59.01-.01.02-.03.03-.04.23-.33.44-.66.67-.99.26.21.53.41.8.6.32.23.64.46.99.65.21.11.42.22.63.33.26.14.53.29.8.41.18.08.37.16.55.25.1.06.19.11.29.18.47.34.89.76,1.36,1.11.52.38,1.08.66,1.66.94.08.04.17.09.25.13.42.3.81.64,1.26.89.5.28,1.02.51,1.54.75.18.1.36.21.54.33.37.27.72.55,1.12.79.28.18.56.36.84.54.12.08.24.16.36.23-.03.03-.06.07-.09.1Zm-21.59,3.1c-.01.08-.03.17-.05.25-.21-.03-.43-.07-.63-.08-.15,0-.3.02-.45.03.04-.15.08-.3.11-.47.36,0,.71.11,1.02.27Zm-8.33-1.17c.04.43.04.87.04,1.31-.1,0-.2,0-.31,0-.5-.05-1-.08-1.51-.1-.02,0-.03,0-.05,0,.12-.59.24-1.19.53-1.72.46.09.89.3,1.3.51Zm-9.31-1.45c.54.45,1.11.97,1.46,1.58.04.27.08.54.11.82-.04,0-.08-.01-.13-.01-.66,0-1.31-.01-1.97-.01-.27-.02-.53-.04-.8-.06.1-.9.24-1.77,1.32-2.32Zm-8.75.3c1,.17,1.58.93,1.77,1.81-.54,0-1.07,0-1.6-.02,0,0-.02,0-.02,0-.05-.6-.19-1.21-.15-1.79Zm-6.74-.72c.28.43.68.83.6,1.39,0,.27,0,.56,0,.87-.1,0-.2,0-.29,0-.29.01-.58.03-.87.04.02-.08.05-.14.07-.23.17-.7-.03-1.5.5-2.07Zm-6.68,2.04c-.3-.03-.6-.05-.91-.08-.15,0-.31.01-.46.03-.17.01-.35.02-.53.04-.15.01-.3.03-.44.04.06-.74.11-1.48.61-2.05,1.05.4,1.5,1.14,1.74,2.03Zm-4.51,7.97s-.04-.1-.07-.17c-.11-.3-.22-.6-.35-.9-.01-.03-.03-.06-.04-.1.02.03.03.05.05.08.16.25.3.51.45.77.12.3.22.62.37.91.1.19.2.38.3.57-.18-.3-.38-.58-.56-.87-.05-.1-.1-.19-.14-.29Zm62.3,29.56c-.46,0-.91.03-1.36.04-.23-.01-.45-.03-.68-.06-.48-.1-.94-.18-1.43-.21-.51-.03-1.01.05-1.51.12-.19.02-.39.04-.58.06-.22.02-.44.03-.66.04-.45-.03-.88-.1-1.33-.16-.48-.09-.99-.2-1.48-.19-.49.01-.96.07-1.44.14-.24.02-.48.03-.73.03-.67-.05-1.34-.11-2.01-.1-.55-.04-1.11-.11-1.66-.1-.35,0-.68.03-1.03.06-.22.03-.45.05-.67.07-.13,0-.26,0-.39,0-.17-.02-.34-.04-.51-.06-.27-.05-.55-.09-.82-.12-.32-.03-.64-.05-.97-.07-.32-.02-.65,0-.97,0-.29.01-.57,0-.86,0-.57-.05-1.13-.1-1.7-.09-.49,0-.98.06-1.47.12-.19,0-.38.02-.58.03-.19-.02-.38-.04-.57-.06-.46-.07-1.09-.17-1.73-.19-.55-.02-1.1,0-1.64.01-.33-.03-.67-.07-1-.1-.28-.03-.56-.03-.85-.02-.53,0-1.07.08-1.6.15-.21,0-.41.01-.62.02-.85-.11-1.7-.25-2.56-.26-.9-.01-1.8.08-2.7.13-.18-.02-.36-.03-.53-.05-.3-.06-.61-.11-.91-.16-.28-.04-.56-.07-.84-.08-.54-.02-1.07.04-1.61.07-.52-.05-1.03-.1-1.55-.12-.46-.02-.92.04-1.37.1-.24.02-.48.03-.73.03-.56-.05-1.12-.11-1.68-.13-.42-.02-.83-.05-1.25-.06-.29-.74-.78-1.42-1.2-2.09-.07-.13-.13-.26-.19-.4-.22-.63-.43-1.26-.69-1.87-.28-.65-.64-1.25-.95-1.88-.23-.59-.47-1.19-.78-1.74-.25-.44-.52-.87-.8-1.29-.06-.12-.13-.24-.19-.36-.26-.73-.46-1.49-.82-2.18-.27-.53-.56-1.05-.82-1.59-.2-.54-.4-1.06-.67-1.57-.25-.47-.56-.91-.86-1.35-.07-.12-.13-.24-.2-.36-.15-.4-.28-.81-.43-1.21-.08-.2-.16-.41-.24-.61-.08-.2-.15-.42-.25-.61-.39-.76-.82-1.49-1.28-2.22-.07-.14-.14-.28-.21-.43-.1-.29-.19-.59-.28-.89-.09-.3-.17-.61-.3-.89-.14-.31-.29-.6-.47-.9-.12-.2-.24-.4-.36-.6-.06-.13-.12-.27-.19-.4-.18-.5-.38-.98-.62-1.45.15.23.32.45.47.67.13.18.25.36.38.54.09.18.18.35.27.53.15.39.29.77.46,1.14.15.36.3.73.48,1.07.19.35.38.68.59,1.02.18.28.37.56.55.83.1.16.2.31.3.47.07.17.15.33.23.5.07.23.14.48.24.7.14.31.27.62.41.93.22.49.52.93.8,1.39.25.52.5,1.04.77,1.55.09.17.17.33.26.5.08.13.17.25.25.38.12.18.24.36.36.55.16.26.33.56.51.85.26.67.51,1.35.83,2,.16.32.34.63.52.94.16.27.31.56.46.84.24.52.46,1.06.77,1.55.26.42.54.84.82,1.25.09.14.17.28.26.43.27.64.49,1.3.79,1.92.15.3.32.59.49.88.04.06.07.12.11.18,0,.05-.02.1-.02.16.03.59.43,1.06.97,1.27.06.02.12.04.19.05.16.04.34.06.52.07.41.02.82.01,1.24.01.33,0,.66.04.98.02.32-.02.65-.03.97-.05.17.01.35.02.52.03.48.08.95.15,1.43.21.15,0,.3,0,.45,0,.17,0,.33,0,.5,0,.22-.01.44-.02.66-.03.33.03.66.07.99.1.25.03.51.08.76.06.33-.01.67-.02,1-.06.2-.03.4-.05.6-.08.22-.01.44-.03.66-.04.23.02.46.05.69.07.36.05.73.1,1.1.14.46.05.92.07,1.39.08.4.01.82-.02,1.22-.06.4-.04.8-.05,1.2-.06.3.05.6.09.9.14.29.04.6.13.89.14.3,0,.6.01.9.01.32,0,.64-.02.96-.04.33.02.67.04,1,.07.29.02.58.06.86.04.3,0,.61,0,.9-.03.31-.03.62-.06.93-.1.25.01.51.03.76.04.48.08.95.16,1.43.2.31.03.61.05.92.04.22,0,.44,0,.65-.01.41.01.82.03,1.23.05.34.02.68.06,1.03.05.33,0,.66,0,.98-.03.29-.03.58-.06.87-.09.25,0,.49.01.73.02.46.08.91.15,1.38.19.5.04.99.03,1.49.02.84.03,1.68.02,2.52.02.22.03.45.06.67.08.41.08.82.17,1.24.18.34,0,.68.02,1.02-.01.61-.06,1.22-.11,1.83-.15.19.02.39.03.58.05.65.1,1.29.24,1.95.3.58.06,1.17-.03,1.74-.11.02,0,.03,0,.05,0,.13.1.28.19.46.26.51.33.91.8,1.3,1.28-.39-.02-.78-.06-1.18-.06Zm-3.13-19.82c.12.22.25.43.37.64.17.41.34.83.52,1.24.14.31.3.59.47.88.08.16.18.3.29.45.1.14.21.29.31.43.12.22.25.44.37.67.14.27.27.56.43.82.13.21.27.43.4.64.16.25.35.5.54.74.12.15.24.31.36.46.09.15.18.3.27.45.25.61.5,1.24.83,1.81.32.56.69,1.09,1.03,1.64.32.61.61,1.25,1.01,1.82.34.49.69.96,1.04,1.44.08.12.15.24.22.36.17.33.3.68.45,1.03.02.06.07.17.13.29-.11,0-.22-.01-.34-.02-.4-.07-.81-.13-1.22-.15-.39-.02-.79-.02-1.18-.02-.08,0-.15,0-.23,0-.55-.02-1.1-.07-1.66-.08-.19,0-.38,0-.56,0-.13,0-.27,0-.4,0-.28,0-.56-.03-.84-.06-.26-.05-.51-.11-.77-.15-.28-.04-.56-.09-.84-.08-.3.01-.59,0-.89.05-.19.02-.38.05-.56.07-.42.04-.83.06-1.25.07-.19-.02-.37-.04-.56-.07-.62-.1-1.24-.24-1.86-.26-.33-.01-.65-.04-.97,0-.21.03-.41.05-.62.08-.25.01-.49.03-.74.04-.53-.04-1.07-.11-1.6-.12-.46-.01-.91-.02-1.37-.06-.45-.04-.89-.04-1.34-.03-.36,0-.72.06-1.08.1-.25,0-.49-.02-.74-.02-.48-.08-.95-.15-1.43-.19-.55-.05-1.1-.05-1.66-.05-.41-.01-.83-.01-1.24-.05-.31-.03-.63-.07-.94-.07-.31,0-.64,0-.95.02-.3.03-.6.06-.9.09-.24,0-.49,0-.73,0-.33-.06-.67-.13-1.01-.16-.3-.03-.6-.06-.9-.09-.28-.03-.58,0-.86,0-.31,0-.62,0-.92,0-.35-.04-.71-.09-1.06-.11-.28-.01-.59-.06-.87-.03-.58.05-1.15.11-1.73.16-.23-.02-.46-.04-.69-.06-.36-.06-.72-.12-1.08-.16-.44-.05-.88-.07-1.32-.09-.44-.02-.89.02-1.32.05-.39.03-.79.05-1.19.07-.19-.02-.38-.05-.57-.07-.31-.06-.61-.13-.92-.17-.27-.03-.54-.06-.8-.09-.34-.04-.7.03-1.04.04-.22,0-.44.02-.66.03-.63-.07-1.26-.16-1.9-.12-.31.02-.61.05-.92.08-.24.03-.48.03-.71.03-.35-.04-.7-.11-1.05-.12-.22,0-.44-.02-.65-.02-.23-.01-.46-.02-.68-.04-.12-.29-.26-.56-.39-.84-.27-.55-.63-1.06-.98-1.56-.09-.14-.18-.29-.27-.43-.13-.31-.26-.61-.37-.93-.13-.35-.27-.71-.44-1.04-.2-.4-.41-.8-.64-1.19-.16-.28-.31-.56-.46-.84-.27-.61-.55-1.23-.91-1.79-.27-.41-.55-.83-.82-1.24-.17-.38-.34-.75-.49-1.14-.12-.31-.22-.63-.38-.92-.34-.65-.69-1.28-1.05-1.92-.11-.26-.22-.51-.33-.77-.13-.29-.28-.55-.44-.83-.16-.27-.31-.55-.5-.81-.12-.16-.24-.33-.36-.49-.09-.16-.19-.31-.28-.47-.16-.39-.3-.79-.46-1.17-.18-.42-.36-.83-.57-1.24-.37-.75-.85-1.44-1.32-2.13-.09-.18-.19-.36-.28-.54-.12-.33-.24-.65-.35-.98-.08-.23-.16-.47-.27-.69-.16-.31-.3-.63-.5-.92-.12-.18-.25-.37-.37-.55-.12-.25-.24-.49-.34-.74-.09-.21-.17-.44-.28-.64-.03-.05-.05-.09-.08-.14.12-.41-.06-.87-.77-1.28-.02-.01-.04-.02-.06-.03-.12-.2-.23-.41-.35-.61-.02-.04-.03-.08-.05-.12.2,0,.41,0,.61-.02.2,0,.39.01.59.02.31.05.62.1.94.15.23.03.48.09.72.09.39,0,.79-.01,1.18-.02-.17,1.06-.35,2.22.8,2.69.21.06.4.09.58.09,1.24,0,1.5-1.41,1.5-2.66.26-.03.51-.07.77-.08.23-.02.46-.03.69-.04.51.06,1.01.13,1.52.18.22.02.44.05.67.08-.37.28-.6.74-.58,1.21.02.62.49,1.22,1.11,1.34.12.02.24.03.35.03,1.32,0,1.89-1.24,2.2-2.65.2.01.41.02.61.03.29.06.58.13.87.16.25.02.51.05.76.07.15.01.3.03.45.04.15,0,.3-.01.44-.02.18,0,.36-.02.54-.02.27,0,.54.02.8.03-.65.91-.4,2.24.93,2.44.04,0,.08,0,.12,0,1.23,0,1.94-1.41,2.3-2.49.37.04.73.07,1.09.12.31.04.62.11.93.12.32.01.64.05.95.04.31,0,.65-.05.96-.03.39.03.79.06,1.18.08-.79.91-.63,2.24.83,2.52,1.43-.05,2.14-1.22,2.57-2.54.34.04.68.09,1.03.14.52.07,1.04.06,1.57.06.29,0,.59-.01.88,0,.22,0,.45.03.68.03.23,0,.47,0,.7,0-.64.8-1.55,1.48-.68,2.58.42.34.83.49,1.21.49,1.08,0,1.96-1.22,2.47-2.81.29,0,.57-.03.86-.06.32-.04.64-.06.96-.09.17,0,.34-.01.52-.02.39.04.79.08,1.18.16.29.06.59.1.88.14-.04.04-.06.09-.11.12-1.19.32-1.67,1.91-.61,2.68.34.17.66.25.96.25.05,0,.09-.01.14-.02,0,.03-.02.06-.03.09-.05.11-.1.22-.15.33-.28.48-.56.94-.79,1.44-.25.48-.51.95-.73,1.44-.11.25-.22.5-.26.77h0s0,.02,0,.03c0,.05-.01.1-.01.15,0,.05.01.1.02.14-.12.41,0,.98.49,1.69.79.82,1.81,1.29,2.84,1.77.88.41,1.76.81,2.5,1.44,0,0,0,0,0,0,.07.04.14.06.21.08.03,0,.06.03.08.03.11.03.23.05.34.05.1,0,.19-.02.28-.05.03,0,.06,0,.09-.01.03,0,.06-.02.08-.03.86-.26,1.75-1.13,2.3-1.75,1.65-1.12,3.1-2.45,4.5-3.85,0,.02.02.04.03.06.12.26.31.48.48.71.32.43.64.86.96,1.29.4.82.78,1.64,1.21,2.45.4.75.92,1.43,1.44,2.1Zm-.15-13.84c-1.53,1.29-3.26,2.35-4.48,3.99-2.17,1.64-4.21,3.41-6.13,5.35-.19.15-.41.29-.64.44-1.13-.69-2.28-1.37-3.42-2.04.11-.22.22-.44.32-.67.16-.35.33-.69.49-1.04.11-.25.2-.51.3-.77.07-.18.15-.35.24-.52.29-.45.59-.89.85-1.36.25-.47.44-.98.63-1.48.14-.25.28-.5.43-.74.21-.33.39-.68.55-1.04.25-.56.41-1.16.59-1.74.04-.09.08-.19.12-.28.08-.15.16-.3.25-.45.13-.2.27-.39.39-.6.25-.43.5-.86.73-1.3.38-.73.64-1.51.9-2.28.06-.14.12-.28.18-.41.1-.18.2-.35.31-.52.32-.46.63-.93.89-1.43.1-.2.19-.41.26-.62.43.27.86.51,1.3.76.33.18.67.34,1,.51.13.08.25.16.37.25.42.36.81.77,1.26,1.1.49.36,1.02.62,1.56.9.14.09.27.17.4.27.34.27.69.55,1.06.78.48.3.99.53,1.5.78.19.11.38.23.56.36.17.14.35.28.52.42-1.27.85-2.47,2.59-3.3,3.36Zm26.46-32.32c-.28.34-.53.69-.76,1.06-.19.32-.36.65-.55.98-.07.09-.14.18-.2.28-.52.56-1.06,1.1-1.52,1.71-.23.31-.44.62-.65.94-.17.25-.36.49-.54.74-.02.02-.16.19-.3.35-.16.19-.45.53-.69.9-.27.42-.52.85-.77,1.28-.13.19-.25.38-.38.57-.46.49-.95.97-1.35,1.51-.18.24-.36.47-.52.72-.17.25-.33.51-.52.75-.2.25-.41.5-.62.75-.2.25-.43.48-.59.76-.29.49-.56.98-.84,1.47-.13.17-.26.33-.39.5-.36.37-.71.75-1.05,1.14-.23.27-.44.56-.66.84-.14.19-.26.41-.39.61-.1.15-.19.3-.28.45-.21.34-.42.68-.63,1.02-.26.29-.52.57-.79.84-.22.22-.42.44-.62.68-.2.25-.42.5-.59.78-.14.24-.29.49-.43.73-.37.44-.73.88-1.08,1.33-.03.04-.05.08-.08.12-.18-.11-.37-.22-.54-.32-.29-.17-.57-.34-.86-.51-.27-.16-.54-.3-.82-.44-.29-.16-.58-.32-.85-.5-.42-.33-.81-.68-1.25-.97-.39-.26-.81-.47-1.23-.68-.09-.05-.17-.09-.25-.14-.51-.37-1-.77-1.55-1.1-.54-.32-1.14-.53-1.71-.78-.12-.07-.24-.13-.36-.21-.2-.15-.39-.31-.58-.46-.31-.25-.64-.48-.96-.71-.4-.28-.81-.53-1.23-.76-.15-.08-.31-.16-.46-.24-.07-.04-.14-.07-.21-.11.02-.03.05-.05.07-.07.1-.12.2-.25.3-.37.1-.16.21-.32.31-.49.18-.29.39-.56.59-.83.2-.22.4-.43.6-.64.19-.21.33-.47.49-.7.18-.27.33-.54.48-.83.14-.26.29-.5.43-.75.33-.38.67-.74,1-1.12.24-.27.5-.54.71-.83.26-.36.52-.72.76-1.1.2-.31.38-.62.56-.94.11-.16.22-.33.32-.49.27-.29.54-.58.82-.86.18-.18.34-.37.51-.56.1-.11.19-.23.28-.34.22-.32.43-.65.64-.98.14-.22.3-.43.47-.64.35-.41.72-.83,1-1.29.26-.41.5-.82.74-1.24.1-.14.19-.29.29-.43.23-.25.46-.5.7-.74.26-.26.52-.54.74-.84.37-.5.71-1.02,1.06-1.53.38-.45.78-.9,1.11-1.39.22-.33.46-.67.65-1.02.13-.24.26-.47.4-.7.07-.09.14-.19.21-.28.47-.49.97-.96,1.37-1.51.29-.41.57-.84.86-1.25.2-.24.39-.49.56-.75.07.05.13.11.19.15.28.19.57.38.87.55.36.2.71.42,1.08.6.31.16.62.31.92.48.14.11.29.21.43.32.39.37.78.77,1.23,1.06.27.17.54.36.83.5.24.12.47.23.71.36.43.3.83.64,1.27.93.44.29.9.52,1.37.74.14.08.34.18.54.3.35.26.69.53,1.05.78.37.25.74.5,1.1.75.36.25.73.52,1.14.68-.08.1-.17.2-.25.3-.27.38-.55.73-.85,1.09Z"/><path class="cls-1" d="m85.48,21.42c-.24-.6-.65-1.12-1.21-1.42-.15-.08-.31-.15-.48-.2-.42-.12-.87-.19-1.3-.12-.37.06-.71.15-1.07.29-.4.16-.8.35-1.19.55-.32.16-.63.32-.93.51-.37.24-.72.51-1.04.81-.36.34-.69.71-1.03,1.06-.25.22-.51.41-.77.6-.31.22-.67.51-.99.84-.31.33-.6.69-.88,1.05-.3.35-.62.68-.88,1.06-.23.33-.46.66-.71.98-.48.52-1.03.98-1.4,1.59-.27.45-.47.92-.68,1.39-.13.28-.25.55-.38.83-.1.2-.21.4-.32.59-.4.6-.85,1.19-1.17,1.83-.32.63-.42,1.32-.52,2.01-.04.23-.09.46-.14.7-.04.2-.11.42-.13.63-.04.45.01.87.19,1.29,0,0,0,0,0,.02-.13.25-.18.53-.13.83.09.52.39,1.01.78,1.36.53.48,1.22.68,1.93.68.06,0,.13,0,.19,0,.56-.03,1.08-.17,1.6-.39.4-.17.77-.41,1.15-.61.54-.25,1.11-.48,1.58-.83.25-.19.49-.38.72-.6.18-.17.35-.34.52-.51.13-.12.27-.24.42-.35.13-.1.26-.19.39-.29.26-.2.48-.42.72-.64.17-.16.34-.4.48-.6.1-.15.21-.29.31-.44.18-.27.36-.54.55-.8.2-.22.4-.42.61-.63.17-.17.34-.33.49-.51.29-.33.58-.65.85-1,.47-.62.83-1.32,1.16-2.03.11-.21.22-.42.34-.63.29-.39.61-.78.88-1.19.23-.35.43-.72.6-1.11.16-.38.28-.78.42-1.16.13-.34.29-.67.41-1.01.32-.89.5-1.79.42-2.74-.05-.57-.15-1.17-.36-1.71Z"/><path class="cls-1" d="m51.7,69.27c-.99.18-1.62,1.24-1.87,2.16-.08.13-.16.26-.25.39-.16.11-.31.21-.48.35-.83-.26-1.55-.86-2.42-1.09-.42-.18-.8-.43-1.17-.7-.1-.07-.2-.15-.3-.22-.43-.32-.85-.65-1.33-.89-1.33-1.01-2.76-2.23-4.5-2.32-.02,0-.03,0-.04,0-.13-.06-.25-.11-.37-.17-2.13-.82-4.42-.11-6.5.52-1.36.26-1.87,1.8-2.94,2.43-.05,0-.08-.02-.13-.02-.33-.91-.82-1.79-.99-2.72.1-2.22-1.51-4.45-3.56-5.22-1.53-.47-3.43-.18-3.82,1.44-.36.24-.64.65-.71,1.26-.09.96.18,1.9.36,2.83.04.85.19,1.68.49,2.48.37.83.52,1.73.94,2.54.4.84,1.08,1.52,1.57,2.3,1.05,2.16,3.04,3.79,5.44,4.14,1.98.57,3.12-.28,3.76-1.63.09-.05.18-.08.25-.15.94-.79.88-2.17,1.38-3.21.21-.33.44-.65.79-.85.92-.64,1.58-1.62,2.84-1.49.32-.08.62-.12.91-.14.16.09.32.18.47.28.8.35,1.55.78,2.29,1.24,1.34.61,2.22,1.9,3.6,2.42,1.91.7,4.34,1.38,5.85-.44.6-.65.83-1.52,1.11-2.33.55-.98.69-2.89-.69-3.2Z"/><text x="0" y="115" fill="#000000" font-size="5px" font-weight="bold" font-family="'Helvetica Neue', Helvetica, Arial-Unicode, Arial, Sans-serif">Created by CHOI Studio</text><text x="0" y="120" fill="#000000" font-size="5px" font-weight="bold" font-family="'Helvetica Neue', Helvetica, Arial-Unicode, Arial, Sans-serif">from the Noun Project</text></svg>